<?xml version="1.0" encoding="UTF-8" standalone="no"?>
<!DOCTYPE svg PUBLIC "-//W3C//DTD SVG 1.1//EN"
 "http://www.w3.org/Graphics/SVG/1.1/DTD/svg11.dtd">
<!-- Generated by graphviz version 2.38.0 (20140413.2041)
 -->
<!-- Title: %3 Pages: 1 -->
<svg width="1204pt" height="3369pt"
 viewBox="0.00 0.00 1204.17 3369.00" xmlns="http://www.w3.org/2000/svg" xmlns:xlink="http://www.w3.org/1999/xlink">
<g id="graph0" class="graph" transform="scale(1 1) rotate(0) translate(4 3365)">
<title>%3</title>
<polygon fill="white" stroke="none" points="-4,4 -4,-3365 1200.17,-3365 1200.17,4 -4,4"/>
<!-- start -->
<g id="node1" class="node"><title>start</title>
<ellipse fill="none" stroke="black" cx="76.4534" cy="-3343" rx="27" ry="18"/>
<text text-anchor="middle" x="76.4534" y="-3338.8" font-family="Times,serif" font-size="14.00">Start</text>
</g>
<!-- if_master_ball -->
<g id="node3" class="node"><title>if_master_ball</title>
<polygon fill="none" stroke="black" points="76.4534,-3288 0.0465312,-3270 76.4534,-3252 152.86,-3270 76.4534,-3288"/>
<text text-anchor="middle" x="76.4534" y="-3265.8" font-family="Times,serif" font-size="14.00">Master ball?</text>
</g>
<!-- start&#45;&gt;if_master_ball -->
<g id="edge1" class="edge"><title>start&#45;&gt;if_master_ball</title>
<path fill="none" stroke="black" d="M76.4534,-3324.81C76.4534,-3316.79 76.4534,-3307.05 76.4534,-3298.07"/>
<polygon fill="black" stroke="black" points="79.9535,-3298.03 76.4534,-3288.03 72.9535,-3298.03 79.9535,-3298.03"/>
</g>
<!-- caught -->
<g id="node2" class="node"><title>caught</title>
<ellipse fill="none" stroke="black" cx="92.4534" cy="-18" rx="35.806" ry="18"/>
<text text-anchor="middle" x="92.4534" y="-13.8" font-family="Times,serif" font-size="14.00">Caught</text>
</g>
<!-- if_master_ball&#45;&gt;caught -->
<g id="edge2" class="edge"><title>if_master_ball&#45;&gt;caught</title>
<path fill="none" stroke="black" d="M66.7308,-3254.21C56.9967,-3237.94 43.4534,-3210.7 43.4534,-3185 43.4534,-3185 43.4534,-3185 43.4534,-90 43.4534,-71.2718 55.1447,-53.8993 67.1057,-41.0266"/>
<polygon fill="black" stroke="black" points="69.906,-43.1749 74.4859,-33.6211 64.9478,-38.2337 69.906,-43.1749"/>
<text text-anchor="middle" x="52.7845" y="-1631.8" font-family="Times,serif" font-size="14.00">yes</text>
</g>
<!-- if_poke_ball -->
<g id="node4" class="node"><title>if_poke_ball</title>
<polygon fill="none" stroke="black" points="142.453,-3202 75.4773,-3184 142.453,-3166 209.43,-3184 142.453,-3202"/>
<text text-anchor="middle" x="142.453" y="-3179.8" font-family="Times,serif" font-size="14.00">Poké ball?</text>
</g>
<!-- if_master_ball&#45;&gt;if_poke_ball -->
<g id="edge3" class="edge"><title>if_master_ball&#45;&gt;if_poke_ball</title>
<path fill="none" stroke="black" d="M87.9498,-3254.37C98.1379,-3241.4 113.17,-3222.27 124.868,-3207.38"/>
<polygon fill="black" stroke="black" points="127.883,-3209.21 131.309,-3199.18 122.378,-3204.88 127.883,-3209.21"/>
<text text-anchor="middle" x="120.453" y="-3222.8" font-family="Times,serif" font-size="14.00">no</text>
</g>
<!-- if_great_ball -->
<g id="node5" class="node"><title>if_great_ball</title>
<polygon fill="none" stroke="black" points="303.453,-3116 233.958,-3098 303.453,-3080 372.949,-3098 303.453,-3116"/>
<text text-anchor="middle" x="303.453" y="-3093.8" font-family="Times,serif" font-size="14.00">Great ball?</text>
</g>
<!-- if_poke_ball&#45;&gt;if_great_ball -->
<g id="edge4" class="edge"><title>if_poke_ball&#45;&gt;if_great_ball</title>
<path fill="none" stroke="black" d="M164.167,-3171.67C192.134,-3157.08 240.916,-3131.63 272.693,-3115.05"/>
<polygon fill="black" stroke="black" points="274.323,-3118.15 281.57,-3110.42 271.085,-3111.94 274.323,-3118.15"/>
<text text-anchor="middle" x="240.453" y="-3136.8" font-family="Times,serif" font-size="14.00">no</text>
</g>
<!-- r1_255 -->
<g id="node7" class="node"><title>r1_255</title>
<ellipse fill="none" stroke="black" cx="142.453" cy="-2862" rx="71.1753" ry="18"/>
<text text-anchor="middle" x="142.453" y="-2857.8" font-family="Times,serif" font-size="14.00">R1 = rand(0,255)</text>
</g>
<!-- if_poke_ball&#45;&gt;r1_255 -->
<g id="edge5" class="edge"><title>if_poke_ball&#45;&gt;r1_255</title>
<path fill="none" stroke="black" d="M142.453,-3165.8C142.453,-3113.27 142.453,-2954.68 142.453,-2890.45"/>
<polygon fill="black" stroke="black" points="145.954,-2890.29 142.453,-2880.29 138.954,-2890.29 145.954,-2890.29"/>
<text text-anchor="middle" x="151.784" y="-3050.8" font-family="Times,serif" font-size="14.00">yes</text>
</g>
<!-- ultra_or_safari -->
<g id="node6" class="node"><title>ultra_or_safari</title>
<polygon fill="none" stroke="black" points="442.453,-3030 362.184,-2980 442.453,-2930 522.723,-2980 442.453,-3030"/>
<text text-anchor="middle" x="442.453" y="-2989.8" font-family="Times,serif" font-size="14.00">Ultra ball</text>
<text text-anchor="middle" x="442.453" y="-2975.8" font-family="Times,serif" font-size="14.00">or</text>
<text text-anchor="middle" x="442.453" y="-2961.8" font-family="Times,serif" font-size="14.00">Safari ball?</text>
</g>
<!-- if_great_ball&#45;&gt;ultra_or_safari -->
<g id="edge7" class="edge"><title>if_great_ball&#45;&gt;ultra_or_safari</title>
<path fill="none" stroke="black" d="M319.128,-3083.92C338.773,-3067.52 373.201,-3038.79 400.698,-3015.85"/>
<polygon fill="black" stroke="black" points="403.182,-3018.33 408.617,-3009.24 398.697,-3012.96 403.182,-3018.33"/>
<text text-anchor="middle" x="368.453" y="-3050.8" font-family="Times,serif" font-size="14.00">no</text>
</g>
<!-- r1_200 -->
<g id="node8" class="node"><title>r1_200</title>
<ellipse fill="none" stroke="black" cx="303.453" cy="-2862" rx="71.1753" ry="18"/>
<text text-anchor="middle" x="303.453" y="-2857.8" font-family="Times,serif" font-size="14.00">R1 = rand(0,200)</text>
</g>
<!-- if_great_ball&#45;&gt;r1_200 -->
<g id="edge6" class="edge"><title>if_great_ball&#45;&gt;r1_200</title>
<path fill="none" stroke="black" d="M303.453,-3079.79C303.453,-3039.56 303.453,-2939.08 303.453,-2890.35"/>
<polygon fill="black" stroke="black" points="306.954,-2890.23 303.453,-2880.23 299.954,-2890.23 306.954,-2890.23"/>
<text text-anchor="middle" x="312.784" y="-2975.8" font-family="Times,serif" font-size="14.00">yes</text>
</g>
<!-- r1_150 -->
<g id="node9" class="node"><title>r1_150</title>
<ellipse fill="none" stroke="black" cx="464.453" cy="-2862" rx="71.1753" ry="18"/>
<text text-anchor="middle" x="464.453" y="-2857.8" font-family="Times,serif" font-size="14.00">R1 = rand(0,150)</text>
</g>
<!-- ultra_or_safari&#45;&gt;r1_150 -->
<g id="edge8" class="edge"><title>ultra_or_safari&#45;&gt;r1_150</title>
<path fill="none" stroke="black" d="M450.771,-2935.15C453.632,-2920.06 456.751,-2903.61 459.288,-2890.24"/>
<polygon fill="black" stroke="black" points="462.756,-2890.73 461.181,-2880.25 455.879,-2889.43 462.756,-2890.73"/>
<text text-anchor="middle" x="465.784" y="-2900.8" font-family="Times,serif" font-size="14.00">yes</text>
</g>
<!-- if_asleep_or_frozen -->
<g id="node10" class="node"><title>if_asleep_or_frozen</title>
<polygon fill="none" stroke="black" points="303.453,-2807 195.559,-2757 303.453,-2707 411.348,-2757 303.453,-2807"/>
<text text-anchor="middle" x="303.453" y="-2766.8" font-family="Times,serif" font-size="14.00">Target Pokémon</text>
<text text-anchor="middle" x="303.453" y="-2752.8" font-family="Times,serif" font-size="14.00">asleep</text>
<text text-anchor="middle" x="303.453" y="-2738.8" font-family="Times,serif" font-size="14.00">or frozen?</text>
</g>
<!-- r1_255&#45;&gt;if_asleep_or_frozen -->
<g id="edge9" class="edge"><title>r1_255&#45;&gt;if_asleep_or_frozen</title>
<path fill="none" stroke="black" d="M167.61,-2844.91C189.731,-2830.75 222.658,-2809.69 250.555,-2791.84"/>
<polygon fill="black" stroke="black" points="252.496,-2794.76 259.033,-2786.42 248.723,-2788.86 252.496,-2794.76"/>
</g>
<!-- r1_200&#45;&gt;if_asleep_or_frozen -->
<g id="edge10" class="edge"><title>r1_200&#45;&gt;if_asleep_or_frozen</title>
<path fill="none" stroke="black" d="M303.453,-2843.99C303.453,-2836.44 303.453,-2827.06 303.453,-2817.3"/>
<polygon fill="black" stroke="black" points="306.954,-2817.05 303.453,-2807.05 299.954,-2817.05 306.954,-2817.05"/>
</g>
<!-- r1_150&#45;&gt;if_asleep_or_frozen -->
<g id="edge11" class="edge"><title>r1_150&#45;&gt;if_asleep_or_frozen</title>
<path fill="none" stroke="black" d="M439.297,-2844.91C417.176,-2830.75 384.248,-2809.69 356.352,-2791.84"/>
<polygon fill="black" stroke="black" points="358.183,-2788.86 347.874,-2786.42 354.411,-2794.76 358.183,-2788.86"/>
</g>
<!-- if_poisoned_burned_or_paralyzed -->
<g id="node11" class="node"><title>if_poisoned_burned_or_paralyzed</title>
<polygon fill="none" stroke="black" points="179.453,-2657 71.5585,-2593 179.453,-2529 287.348,-2593 179.453,-2657"/>
<text text-anchor="middle" x="179.453" y="-2609.8" font-family="Times,serif" font-size="14.00">Target Pokémon</text>
<text text-anchor="middle" x="179.453" y="-2595.8" font-family="Times,serif" font-size="14.00">poisoned,</text>
<text text-anchor="middle" x="179.453" y="-2581.8" font-family="Times,serif" font-size="14.00">burned, or</text>
<text text-anchor="middle" x="179.453" y="-2567.8" font-family="Times,serif" font-size="14.00"> frozen?</text>
</g>
<!-- if_asleep_or_frozen&#45;&gt;if_poisoned_burned_or_paralyzed -->
<g id="edge12" class="edge"><title>if_asleep_or_frozen&#45;&gt;if_poisoned_burned_or_paralyzed</title>
<path fill="none" stroke="black" d="M275.625,-2719.64C258.882,-2697.77 237.302,-2669.58 218.828,-2645.44"/>
<polygon fill="black" stroke="black" points="221.551,-2643.24 212.694,-2637.43 215.993,-2647.5 221.551,-2643.24"/>
<text text-anchor="middle" x="256.453" y="-2677.8" font-family="Times,serif" font-size="14.00">no</text>
</g>
<!-- s_25 -->
<g id="node14" class="node"><title>s_25</title>
<ellipse fill="none" stroke="black" cx="319.453" cy="-2461" rx="33.0569" ry="18"/>
<text text-anchor="middle" x="319.453" y="-2456.8" font-family="Times,serif" font-size="14.00">S = 25</text>
</g>
<!-- if_asleep_or_frozen&#45;&gt;s_25 -->
<g id="edge13" class="edge"><title>if_asleep_or_frozen&#45;&gt;s_25</title>
<path fill="none" stroke="black" d="M306.06,-2708.11C309.45,-2645.81 315.261,-2539.04 317.975,-2489.17"/>
<polygon fill="black" stroke="black" points="321.472,-2489.32 318.52,-2479.15 314.482,-2488.94 321.472,-2489.32"/>
<text text-anchor="middle" x="325.784" y="-2588.8" font-family="Times,serif" font-size="14.00">yes</text>
</g>
<!-- s_0 -->
<g id="node12" class="node"><title>s_0</title>
<ellipse fill="none" stroke="black" cx="152.453" cy="-2461" rx="28.7127" ry="18"/>
<text text-anchor="middle" x="152.453" y="-2456.8" font-family="Times,serif" font-size="14.00">S = 0</text>
</g>
<!-- if_poisoned_burned_or_paralyzed&#45;&gt;s_0 -->
<g id="edge15" class="edge"><title>if_poisoned_burned_or_paralyzed&#45;&gt;s_0</title>
<path fill="none" stroke="black" d="M167.768,-2535.74C164.394,-2519.49 160.866,-2502.51 158.048,-2488.94"/>
<polygon fill="black" stroke="black" points="161.417,-2487.95 155.957,-2478.87 154.564,-2489.37 161.417,-2487.95"/>
<text text-anchor="middle" x="169.453" y="-2499.8" font-family="Times,serif" font-size="14.00">no</text>
</g>
<!-- s_12 -->
<g id="node13" class="node"><title>s_12</title>
<ellipse fill="none" stroke="black" cx="232.453" cy="-2461" rx="33.0569" ry="18"/>
<text text-anchor="middle" x="232.453" y="-2456.8" font-family="Times,serif" font-size="14.00">S = 12</text>
</g>
<!-- if_poisoned_burned_or_paralyzed&#45;&gt;s_12 -->
<g id="edge14" class="edge"><title>if_poisoned_burned_or_paralyzed&#45;&gt;s_12</title>
<path fill="none" stroke="black" d="M200.248,-2540.99C207.553,-2523.08 215.464,-2503.67 221.618,-2488.58"/>
<polygon fill="black" stroke="black" points="225.034,-2489.47 225.568,-2478.89 218.552,-2486.83 225.034,-2489.47"/>
<text text-anchor="middle" x="226.784" y="-2499.8" font-family="Times,serif" font-size="14.00">yes</text>
</g>
<!-- r_star -->
<g id="node15" class="node"><title>r_star</title>
<ellipse fill="none" stroke="black" cx="228.453" cy="-2388" rx="52.383" ry="18"/>
<text text-anchor="middle" x="228.453" y="-2383.8" font-family="Times,serif" font-size="14.00">R* = R1 &#45; S</text>
</g>
<!-- s_0&#45;&gt;r_star -->
<g id="edge16" class="edge"><title>s_0&#45;&gt;r_star</title>
<path fill="none" stroke="black" d="M167.833,-2445.63C178.151,-2435.99 191.968,-2423.08 203.805,-2412.03"/>
<polygon fill="black" stroke="black" points="206.322,-2414.46 211.241,-2405.08 201.544,-2409.35 206.322,-2414.46"/>
</g>
<!-- s_12&#45;&gt;r_star -->
<g id="edge17" class="edge"><title>s_12&#45;&gt;r_star</title>
<path fill="none" stroke="black" d="M231.485,-2442.81C231.033,-2434.79 230.484,-2425.05 229.978,-2416.07"/>
<polygon fill="black" stroke="black" points="233.47,-2415.82 229.413,-2406.03 226.481,-2416.21 233.47,-2415.82"/>
</g>
<!-- s_25&#45;&gt;r_star -->
<g id="edge18" class="edge"><title>s_25&#45;&gt;r_star</title>
<path fill="none" stroke="black" d="M301.038,-2445.63C288.361,-2435.74 271.274,-2422.41 256.863,-2411.17"/>
<polygon fill="black" stroke="black" points="258.778,-2408.22 248.741,-2404.83 254.472,-2413.74 258.778,-2408.22"/>
</g>
<!-- if_r_star_negative -->
<g id="node16" class="node"><title>if_r_star_negative</title>
<polygon fill="none" stroke="black" points="227.453,-2333 179.057,-2315 227.453,-2297 275.85,-2315 227.453,-2333"/>
<text text-anchor="middle" x="227.453" y="-2310.8" font-family="Times,serif" font-size="14.00">R* &lt; 0</text>
</g>
<!-- r_star&#45;&gt;if_r_star_negative -->
<g id="edge19" class="edge"><title>r_star&#45;&gt;if_r_star_negative</title>
<path fill="none" stroke="black" d="M228.211,-2369.81C228.098,-2361.79 227.961,-2352.05 227.835,-2343.07"/>
<polygon fill="black" stroke="black" points="231.334,-2342.98 227.693,-2333.03 224.335,-2343.08 231.334,-2342.98"/>
</g>
<!-- if_r_star_negative&#45;&gt;caught -->
<g id="edge20" class="edge"><title>if_r_star_negative&#45;&gt;caught</title>
<path fill="none" stroke="black" d="M195.802,-2308.68C155.9,-2299.95 92.4534,-2278.45 92.4534,-2230 92.4534,-2230 92.4534,-2230 92.4534,-90 92.4534,-75.6513 92.4534,-59.6715 92.4534,-46.5107"/>
<polygon fill="black" stroke="black" points="95.9535,-46.2164 92.4534,-36.2164 88.9535,-46.2164 95.9535,-46.2164"/>
<text text-anchor="middle" x="101.784" y="-1257.8" font-family="Times,serif" font-size="14.00">yes</text>
</g>
<!-- hp_factor -->
<g id="node17" class="node"><title>hp_factor</title>
<ellipse fill="none" stroke="black" cx="227.453" cy="-2229" rx="77.4901" ry="18"/>
<text text-anchor="middle" x="227.453" y="-2224.8" font-family="Times,serif" font-size="14.00">F = 255 * max_HP</text>
</g>
<!-- if_r_star_negative&#45;&gt;hp_factor -->
<g id="edge21" class="edge"><title>if_r_star_negative&#45;&gt;hp_factor</title>
<path fill="none" stroke="black" d="M227.453,-2296.6C227.453,-2285.26 227.453,-2270.23 227.453,-2257.32"/>
<polygon fill="black" stroke="black" points="230.954,-2257.1 227.453,-2247.1 223.954,-2257.1 230.954,-2257.1"/>
<text text-anchor="middle" x="234.453" y="-2267.8" font-family="Times,serif" font-size="14.00">no</text>
</g>
<!-- if_great_ball_2 -->
<g id="node20" class="node"><title>if_great_ball_2</title>
<polygon fill="none" stroke="black" points="227.453,-2174 157.958,-2156 227.453,-2138 296.949,-2156 227.453,-2174"/>
<text text-anchor="middle" x="227.453" y="-2151.8" font-family="Times,serif" font-size="14.00">Great ball?</text>
</g>
<!-- hp_factor&#45;&gt;if_great_ball_2 -->
<g id="edge22" class="edge"><title>hp_factor&#45;&gt;if_great_ball_2</title>
<path fill="none" stroke="black" d="M227.453,-2210.81C227.453,-2202.79 227.453,-2193.05 227.453,-2184.07"/>
<polygon fill="black" stroke="black" points="230.954,-2184.03 227.453,-2174.03 223.954,-2184.03 230.954,-2184.03"/>
</g>
<!-- divisor_8 -->
<g id="node18" class="node"><title>divisor_8</title>
<ellipse fill="none" stroke="black" cx="218.453" cy="-2070" rx="31.1271" ry="18"/>
<text text-anchor="middle" x="218.453" y="-2065.8" font-family="Times,serif" font-size="14.00">F /= 8</text>
</g>
<!-- current_hp -->
<g id="node21" class="node"><title>current_hp</title>
<polygon fill="none" stroke="black" points="260.453,-2015 158.984,-1997 260.453,-1979 361.923,-1997 260.453,-2015"/>
<text text-anchor="middle" x="260.453" y="-1992.8" font-family="Times,serif" font-size="14.00">current_HP/4 &gt; 0</text>
</g>
<!-- divisor_8&#45;&gt;current_hp -->
<g id="edge25" class="edge"><title>divisor_8&#45;&gt;current_hp</title>
<path fill="none" stroke="black" d="M228.195,-2052.53C233.538,-2043.5 240.262,-2032.13 246.187,-2022.12"/>
<polygon fill="black" stroke="black" points="249.261,-2023.79 251.34,-2013.41 243.236,-2020.23 249.261,-2023.79"/>
</g>
<!-- divisor_12 -->
<g id="node19" class="node"><title>divisor_12</title>
<ellipse fill="none" stroke="black" cx="303.453" cy="-2070" rx="35.971" ry="18"/>
<text text-anchor="middle" x="303.453" y="-2065.8" font-family="Times,serif" font-size="14.00">F /= 12</text>
</g>
<!-- divisor_12&#45;&gt;current_hp -->
<g id="edge26" class="edge"><title>divisor_12&#45;&gt;current_hp</title>
<path fill="none" stroke="black" d="M293.48,-2052.53C288.01,-2043.5 281.126,-2032.13 275.06,-2022.12"/>
<polygon fill="black" stroke="black" points="277.958,-2020.15 269.784,-2013.41 271.97,-2023.77 277.958,-2020.15"/>
</g>
<!-- if_great_ball_2&#45;&gt;divisor_8 -->
<g id="edge23" class="edge"><title>if_great_ball_2&#45;&gt;divisor_8</title>
<path fill="none" stroke="black" d="M225.675,-2138.4C224.446,-2126.94 222.784,-2111.42 221.364,-2098.16"/>
<polygon fill="black" stroke="black" points="224.835,-2097.71 220.29,-2088.14 217.875,-2098.45 224.835,-2097.71"/>
<text text-anchor="middle" x="233.784" y="-2108.8" font-family="Times,serif" font-size="14.00">yes</text>
</g>
<!-- if_great_ball_2&#45;&gt;divisor_12 -->
<g id="edge24" class="edge"><title>if_great_ball_2&#45;&gt;divisor_12</title>
<path fill="none" stroke="black" d="M240.003,-2141.13C251.564,-2128.35 268.94,-2109.15 282.588,-2094.06"/>
<polygon fill="black" stroke="black" points="285.22,-2096.37 289.334,-2086.61 280.029,-2091.67 285.22,-2096.37"/>
<text text-anchor="middle" x="277.453" y="-2108.8" font-family="Times,serif" font-size="14.00">no</text>
</g>
<!-- f_div_hp_4 -->
<g id="node22" class="node"><title>f_div_hp_4</title>
<ellipse fill="none" stroke="black" cx="347.453" cy="-1911" rx="80.3542" ry="18"/>
<text text-anchor="middle" x="347.453" y="-1906.8" font-family="Times,serif" font-size="14.00">F /= (current_HP/4)</text>
</g>
<!-- current_hp&#45;&gt;f_div_hp_4 -->
<g id="edge27" class="edge"><title>current_hp&#45;&gt;f_div_hp_4</title>
<path fill="none" stroke="black" d="M275.608,-1981.37C288.542,-1968.88 307.399,-1950.67 322.549,-1936.05"/>
<polygon fill="black" stroke="black" points="325.32,-1938.24 330.083,-1928.77 320.458,-1933.2 325.32,-1938.24"/>
<text text-anchor="middle" x="318.784" y="-1949.8" font-family="Times,serif" font-size="14.00">yes</text>
</g>
<!-- round_f -->
<g id="node23" class="node"><title>round_f</title>
<ellipse fill="none" stroke="black" cx="255.453" cy="-1838" rx="69.0734" ry="18"/>
<text text-anchor="middle" x="255.453" y="-1833.8" font-family="Times,serif" font-size="14.00">F = min{255, F}</text>
</g>
<!-- current_hp&#45;&gt;round_f -->
<g id="edge29" class="edge"><title>current_hp&#45;&gt;round_f</title>
<path fill="none" stroke="black" d="M255.418,-1979.67C251.547,-1966.22 246.523,-1946.58 244.453,-1929 242.582,-1913.11 242.849,-1908.92 244.453,-1893 245.34,-1884.2 247.021,-1874.72 248.806,-1866.19"/>
<polygon fill="black" stroke="black" points="252.235,-1866.9 250.989,-1856.37 245.402,-1865.38 252.235,-1866.9"/>
<text text-anchor="middle" x="251.453" y="-1906.8" font-family="Times,serif" font-size="14.00">no</text>
</g>
<!-- f_div_hp_4&#45;&gt;round_f -->
<g id="edge28" class="edge"><title>f_div_hp_4&#45;&gt;round_f</title>
<path fill="none" stroke="black" d="M326.116,-1893.53C313.807,-1884.03 298.154,-1871.95 284.711,-1861.58"/>
<polygon fill="black" stroke="black" points="286.731,-1858.72 276.676,-1855.38 282.454,-1864.26 286.731,-1858.72"/>
</g>
<!-- base_catch_rate -->
<g id="node24" class="node"><title>base_catch_rate</title>
<polygon fill="none" stroke="black" points="255.453,-1783 126.255,-1765 255.453,-1747 384.652,-1765 255.453,-1783"/>
<text text-anchor="middle" x="255.453" y="-1760.8" font-family="Times,serif" font-size="14.00">base_catch_rate &gt;= R*</text>
</g>
<!-- round_f&#45;&gt;base_catch_rate -->
<g id="edge30" class="edge"><title>round_f&#45;&gt;base_catch_rate</title>
<path fill="none" stroke="black" d="M255.453,-1819.81C255.453,-1811.79 255.453,-1802.05 255.453,-1793.07"/>
<polygon fill="black" stroke="black" points="258.954,-1793.03 255.453,-1783.03 251.954,-1793.03 258.954,-1793.03"/>
</g>
<!-- w_init -->
<g id="node25" class="node"><title>w_init</title>
<ellipse fill="none" stroke="black" cx="282.453" cy="-1507" rx="106.059" ry="18"/>
<text text-anchor="middle" x="282.453" y="-1502.8" font-family="Times,serif" font-size="14.00">W = 100 * base_catch_rate</text>
</g>
<!-- base_catch_rate&#45;&gt;w_init -->
<g id="edge31" class="edge"><title>base_catch_rate&#45;&gt;w_init</title>
<path fill="none" stroke="black" d="M260.216,-1747.64C263.929,-1734.17 268.874,-1714.51 271.453,-1697 279.854,-1639.98 281.907,-1572.39 282.367,-1535.47"/>
<polygon fill="black" stroke="black" points="285.871,-1535.08 282.464,-1525.04 278.871,-1535.01 285.871,-1535.08"/>
<text text-anchor="middle" x="286.453" y="-1631.8" font-family="Times,serif" font-size="14.00">no</text>
</g>
<!-- r2 -->
<g id="node26" class="node"><title>r2</title>
<ellipse fill="none" stroke="black" cx="191.453" cy="-1679" rx="71.1753" ry="18"/>
<text text-anchor="middle" x="191.453" y="-1674.8" font-family="Times,serif" font-size="14.00">R2 = rand(0,255)</text>
</g>
<!-- base_catch_rate&#45;&gt;r2 -->
<g id="edge32" class="edge"><title>base_catch_rate&#45;&gt;r2</title>
<path fill="none" stroke="black" d="M243.715,-1748.59C234.451,-1736.43 221.338,-1719.22 210.565,-1705.08"/>
<polygon fill="black" stroke="black" points="213.06,-1702.58 204.215,-1696.75 207.491,-1706.83 213.06,-1702.58"/>
<text text-anchor="middle" x="236.784" y="-1717.8" font-family="Times,serif" font-size="14.00">yes</text>
</g>
<!-- if_poke_ball_2 -->
<g id="node28" class="node"><title>if_poke_ball_2</title>
<polygon fill="none" stroke="black" points="282.453,-1452 213.801,-1434 282.453,-1416 351.106,-1434 282.453,-1452"/>
<text text-anchor="middle" x="282.453" y="-1429.8" font-family="Times,serif" font-size="14.00">Poké Ball?</text>
</g>
<!-- w_init&#45;&gt;if_poke_ball_2 -->
<g id="edge36" class="edge"><title>w_init&#45;&gt;if_poke_ball_2</title>
<path fill="none" stroke="black" d="M282.453,-1488.81C282.453,-1480.79 282.453,-1471.05 282.453,-1462.07"/>
<polygon fill="black" stroke="black" points="285.954,-1462.03 282.453,-1452.03 278.954,-1462.03 285.954,-1462.03"/>
</g>
<!-- r2_and_f -->
<g id="node27" class="node"><title>r2_and_f</title>
<polygon fill="none" stroke="black" points="191.453,-1611 135.046,-1593 191.453,-1575 247.861,-1593 191.453,-1611"/>
<text text-anchor="middle" x="191.453" y="-1588.8" font-family="Times,serif" font-size="14.00">R2 &lt;= F</text>
</g>
<!-- r2&#45;&gt;r2_and_f -->
<g id="edge33" class="edge"><title>r2&#45;&gt;r2_and_f</title>
<path fill="none" stroke="black" d="M191.453,-1660.6C191.453,-1649.26 191.453,-1634.23 191.453,-1621.32"/>
<polygon fill="black" stroke="black" points="194.954,-1621.1 191.453,-1611.1 187.954,-1621.1 194.954,-1621.1"/>
</g>
<!-- r2_and_f&#45;&gt;caught -->
<g id="edge34" class="edge"><title>r2_and_f&#45;&gt;caught</title>
<path fill="none" stroke="black" d="M178.61,-1579C164.695,-1563.48 144.453,-1536.07 144.453,-1508 144.453,-1508 144.453,-1508 144.453,-90 144.453,-70.7141 131.811,-53.1854 118.994,-40.3698"/>
<polygon fill="black" stroke="black" points="121.218,-37.6585 111.521,-33.3911 116.441,-42.7745 121.218,-37.6585"/>
<text text-anchor="middle" x="153.784" y="-896.8" font-family="Times,serif" font-size="14.00">yes</text>
</g>
<!-- r2_and_f&#45;&gt;w_init -->
<g id="edge35" class="edge"><title>r2_and_f&#45;&gt;w_init</title>
<path fill="none" stroke="black" d="M205.274,-1579.24C218.777,-1566.78 239.668,-1547.49 256.311,-1532.13"/>
<polygon fill="black" stroke="black" points="259.116,-1534.31 264.09,-1524.95 254.368,-1529.16 259.116,-1534.31"/>
<text text-anchor="middle" x="249.453" y="-1545.8" font-family="Times,serif" font-size="14.00">no</text>
</g>
<!-- if_great_ball_3 -->
<g id="node29" class="node"><title>if_great_ball_3</title>
<polygon fill="none" stroke="black" points="369.453,-1366 297.781,-1348 369.453,-1330 441.126,-1348 369.453,-1366"/>
<text text-anchor="middle" x="369.453" y="-1343.8" font-family="Times,serif" font-size="14.00">Great Ball?</text>
</g>
<!-- if_poke_ball_2&#45;&gt;if_great_ball_3 -->
<g id="edge37" class="edge"><title>if_poke_ball_2&#45;&gt;if_great_ball_3</title>
<path fill="none" stroke="black" d="M296.431,-1419.5C310.301,-1406.11 331.752,-1385.4 347.821,-1369.89"/>
<polygon fill="black" stroke="black" points="350.458,-1372.21 355.221,-1362.74 345.596,-1367.17 350.458,-1372.21"/>
<text text-anchor="middle" x="338.453" y="-1386.8" font-family="Times,serif" font-size="14.00">no</text>
</g>
<!-- w_255 -->
<g id="node30" class="node"><title>w_255</title>
<ellipse fill="none" stroke="black" cx="265.453" cy="-1176" rx="43.3593" ry="18"/>
<text text-anchor="middle" x="265.453" y="-1171.8" font-family="Times,serif" font-size="14.00">W /= 255</text>
</g>
<!-- if_poke_ball_2&#45;&gt;w_255 -->
<g id="edge38" class="edge"><title>if_poke_ball_2&#45;&gt;w_255</title>
<path fill="none" stroke="black" d="M281.338,-1416.2C278.463,-1372.91 270.781,-1257.22 267.261,-1204.21"/>
<polygon fill="black" stroke="black" points="270.75,-1203.94 266.595,-1194.19 263.766,-1204.4 270.75,-1203.94"/>
<text text-anchor="middle" x="283.784" y="-1300.8" font-family="Times,serif" font-size="14.00">yes</text>
</g>
<!-- w_200 -->
<g id="node31" class="node"><title>w_200</title>
<ellipse fill="none" stroke="black" cx="370.453" cy="-1176" rx="43.3593" ry="18"/>
<text text-anchor="middle" x="370.453" y="-1171.8" font-family="Times,serif" font-size="14.00">W /= 200</text>
</g>
<!-- if_great_ball_3&#45;&gt;w_200 -->
<g id="edge39" class="edge"><title>if_great_ball_3&#45;&gt;w_200</title>
<path fill="none" stroke="black" d="M369.555,-1329.76C369.729,-1300.16 370.086,-1239.43 370.294,-1204.11"/>
<polygon fill="black" stroke="black" points="373.794,-1204.05 370.353,-1194.03 366.794,-1204.01 373.794,-1204.05"/>
<text text-anchor="middle" x="379.784" y="-1257.8" font-family="Times,serif" font-size="14.00">yes</text>
</g>
<!-- if_ultra_ball_2 -->
<g id="node32" class="node"><title>if_ultra_ball_2</title>
<polygon fill="none" stroke="black" points="475.453,-1280 405.933,-1262 475.453,-1244 544.974,-1262 475.453,-1280"/>
<text text-anchor="middle" x="475.453" y="-1257.8" font-family="Times,serif" font-size="14.00">Ultra Ball?</text>
</g>
<!-- if_great_ball_3&#45;&gt;if_ultra_ball_2 -->
<g id="edge40" class="edge"><title>if_great_ball_3&#45;&gt;if_ultra_ball_2</title>
<path fill="none" stroke="black" d="M386.016,-1333.88C403.441,-1320.07 431.049,-1298.19 450.985,-1282.39"/>
<polygon fill="black" stroke="black" points="453.344,-1284.99 459.007,-1276.03 448.996,-1279.5 453.344,-1284.99"/>
<text text-anchor="middle" x="435.453" y="-1300.8" font-family="Times,serif" font-size="14.00">no</text>
</g>
<!-- w_overflow -->
<g id="node34" class="node"><title>w_overflow</title>
<polygon fill="none" stroke="black" points="370.453,-1121 312.565,-1103 370.453,-1085 428.341,-1103 370.453,-1121"/>
<text text-anchor="middle" x="370.453" y="-1098.8" font-family="Times,serif" font-size="14.00">W &gt; 255</text>
</g>
<!-- w_255&#45;&gt;w_overflow -->
<g id="edge44" class="edge"><title>w_255&#45;&gt;w_overflow</title>
<path fill="none" stroke="black" d="M287.21,-1160.29C303.885,-1149.01 326.95,-1133.42 344.573,-1121.5"/>
<polygon fill="black" stroke="black" points="346.907,-1124.15 353.231,-1115.65 342.986,-1118.35 346.907,-1124.15"/>
</g>
<!-- w_200&#45;&gt;w_overflow -->
<g id="edge43" class="edge"><title>w_200&#45;&gt;w_overflow</title>
<path fill="none" stroke="black" d="M370.453,-1157.81C370.453,-1149.79 370.453,-1140.05 370.453,-1131.07"/>
<polygon fill="black" stroke="black" points="373.954,-1131.03 370.453,-1121.03 366.954,-1131.03 373.954,-1131.03"/>
</g>
<!-- w_150 -->
<g id="node33" class="node"><title>w_150</title>
<ellipse fill="none" stroke="black" cx="475.453" cy="-1176" rx="43.3593" ry="18"/>
<text text-anchor="middle" x="475.453" y="-1171.8" font-family="Times,serif" font-size="14.00">W /= 150</text>
</g>
<!-- if_ultra_ball_2&#45;&gt;w_150 -->
<g id="edge41" class="edge"><title>if_ultra_ball_2&#45;&gt;w_150</title>
<path fill="none" stroke="black" d="M475.453,-1243.6C475.453,-1232.26 475.453,-1217.23 475.453,-1204.32"/>
<polygon fill="black" stroke="black" points="478.954,-1204.1 475.453,-1194.1 471.954,-1204.1 478.954,-1204.1"/>
<text text-anchor="middle" x="484.784" y="-1214.8" font-family="Times,serif" font-size="14.00">yes</text>
</g>
<!-- w_150&#45;&gt;w_overflow -->
<g id="edge42" class="edge"><title>w_150&#45;&gt;w_overflow</title>
<path fill="none" stroke="black" d="M453.697,-1160.29C437.022,-1149.01 413.957,-1133.42 396.333,-1121.5"/>
<polygon fill="black" stroke="black" points="397.921,-1118.35 387.676,-1115.65 394,-1124.15 397.921,-1118.35"/>
</g>
<!-- wobble_3 -->
<g id="node35" class="node"><title>wobble_3</title>
<ellipse fill="none" stroke="black" cx="360.453" cy="-91" rx="65.3003" ry="18"/>
<text text-anchor="middle" x="360.453" y="-86.8" font-family="Times,serif" font-size="14.00">Wobble 3 times</text>
</g>
<!-- w_overflow&#45;&gt;wobble_3 -->
<g id="edge45" class="edge"><title>w_overflow&#45;&gt;wobble_3</title>
<path fill="none" stroke="black" d="M367.966,-1085.63C365.618,-1068.73 362.453,-1041.59 362.453,-1018 362.453,-1018 362.453,-1018 362.453,-198 362.453,-171.232 361.808,-140.669 361.25,-119.261"/>
<polygon fill="black" stroke="black" points="364.749,-119.158 360.979,-109.257 357.752,-119.348 364.749,-119.158"/>
<text text-anchor="middle" x="371.784" y="-571.8" font-family="Times,serif" font-size="14.00">yes</text>
</g>
<!-- w_by_f -->
<g id="node36" class="node"><title>w_by_f</title>
<ellipse fill="none" stroke="black" cx="430.453" cy="-1017" rx="37.0949" ry="18"/>
<text text-anchor="middle" x="430.453" y="-1012.8" font-family="Times,serif" font-size="14.00">W *= F</text>
</g>
<!-- w_overflow&#45;&gt;w_by_f -->
<g id="edge46" class="edge"><title>w_overflow&#45;&gt;w_by_f</title>
<path fill="none" stroke="black" d="M380.632,-1087.75C389.463,-1075.39 402.444,-1057.21 412.941,-1042.52"/>
<polygon fill="black" stroke="black" points="415.82,-1044.51 418.785,-1034.34 410.124,-1040.44 415.82,-1044.51"/>
<text text-anchor="middle" x="410.453" y="-1055.8" font-family="Times,serif" font-size="14.00">no</text>
</g>
<!-- shoot -->
<g id="node50" class="node"><title>shoot</title>
<ellipse fill="none" stroke="black" cx="255.453" cy="-18" rx="107.236" ry="18"/>
<text text-anchor="middle" x="255.453" y="-13.8" font-family="Times,serif" font-size="14.00">&#39;Shoot! It was so close too!&#39;</text>
</g>
<!-- wobble_3&#45;&gt;shoot -->
<g id="edge63" class="edge"><title>wobble_3&#45;&gt;shoot</title>
<path fill="none" stroke="black" d="M336.889,-74.0662C322.605,-64.4071 304.164,-51.9376 288.444,-41.3078"/>
<polygon fill="black" stroke="black" points="290.278,-38.3233 280.034,-35.6211 286.357,-44.122 290.278,-38.3233"/>
</g>
<!-- w_mod_255 -->
<g id="node37" class="node"><title>w_mod_255</title>
<ellipse fill="none" stroke="black" cx="465.453" cy="-944" rx="43.3593" ry="18"/>
<text text-anchor="middle" x="465.453" y="-939.8" font-family="Times,serif" font-size="14.00">W /= 255</text>
</g>
<!-- w_by_f&#45;&gt;w_mod_255 -->
<g id="edge47" class="edge"><title>w_by_f&#45;&gt;w_mod_255</title>
<path fill="none" stroke="black" d="M438.748,-999.174C442.932,-990.686 448.099,-980.206 452.769,-970.732"/>
<polygon fill="black" stroke="black" points="455.936,-972.222 457.218,-961.705 449.658,-969.127 455.936,-972.222"/>
</g>
<!-- if_asleep_or_frozen_2 -->
<g id="node38" class="node"><title>if_asleep_or_frozen_2</title>
<polygon fill="none" stroke="black" points="564.453,-876 456.559,-826 564.453,-776 672.348,-826 564.453,-876"/>
<text text-anchor="middle" x="564.453" y="-835.8" font-family="Times,serif" font-size="14.00">Target Pokémon</text>
<text text-anchor="middle" x="564.453" y="-821.8" font-family="Times,serif" font-size="14.00">asleep</text>
<text text-anchor="middle" x="564.453" y="-807.8" font-family="Times,serif" font-size="14.00">or frozen?</text>
</g>
<!-- w_mod_255&#45;&gt;if_asleep_or_frozen_2 -->
<g id="edge48" class="edge"><title>w_mod_255&#45;&gt;if_asleep_or_frozen_2</title>
<path fill="none" stroke="black" d="M479.219,-926.871C491.695,-912.252 510.657,-890.034 527.53,-870.263"/>
<polygon fill="black" stroke="black" points="530.29,-872.421 534.12,-862.543 524.966,-867.877 530.29,-872.421"/>
</g>
<!-- if_poisoned_burned_or_paralyzed_2 -->
<g id="node39" class="node"><title>if_poisoned_burned_or_paralyzed_2</title>
<polygon fill="none" stroke="black" points="638.453,-640 530.559,-576 638.453,-512 746.348,-576 638.453,-640"/>
<text text-anchor="middle" x="638.453" y="-592.8" font-family="Times,serif" font-size="14.00">Target Pokémon</text>
<text text-anchor="middle" x="638.453" y="-578.8" font-family="Times,serif" font-size="14.00">poisoned,</text>
<text text-anchor="middle" x="638.453" y="-564.8" font-family="Times,serif" font-size="14.00">burned, or</text>
<text text-anchor="middle" x="638.453" y="-550.8" font-family="Times,serif" font-size="14.00"> frozen?</text>
</g>
<!-- if_asleep_or_frozen_2&#45;&gt;if_poisoned_burned_or_paralyzed_2 -->
<g id="edge49" class="edge"><title>if_asleep_or_frozen_2&#45;&gt;if_poisoned_burned_or_paralyzed_2</title>
<path fill="none" stroke="black" d="M562.423,-776.886C562.61,-750.682 564.971,-717.987 573.453,-690 579.744,-669.246 590.431,-648.197 601.344,-629.982"/>
<polygon fill="black" stroke="black" points="604.438,-631.632 606.7,-621.281 598.477,-627.962 604.438,-631.632"/>
<text text-anchor="middle" x="580.453" y="-703.8" font-family="Times,serif" font-size="14.00">no</text>
</g>
<!-- w_plus_10 -->
<g id="node40" class="node"><title>w_plus_10</title>
<ellipse fill="none" stroke="black" cx="638.453" cy="-708" rx="41.5766" ry="18"/>
<text text-anchor="middle" x="638.453" y="-703.8" font-family="Times,serif" font-size="14.00">W += 10</text>
</g>
<!-- if_asleep_or_frozen_2&#45;&gt;w_plus_10 -->
<g id="edge50" class="edge"><title>if_asleep_or_frozen_2&#45;&gt;w_plus_10</title>
<path fill="none" stroke="black" d="M588.684,-787.017C599.748,-769.674 612.548,-749.608 622.397,-734.17"/>
<polygon fill="black" stroke="black" points="625.392,-735.983 627.819,-725.67 619.49,-732.218 625.392,-735.983"/>
<text text-anchor="middle" x="623.784" y="-746.8" font-family="Times,serif" font-size="14.00">yes</text>
</g>
<!-- w_plus_5 -->
<g id="node41" class="node"><title>w_plus_5</title>
<ellipse fill="none" stroke="black" cx="707.453" cy="-444" rx="37.2334" ry="18"/>
<text text-anchor="middle" x="707.453" y="-439.8" font-family="Times,serif" font-size="14.00">W += 5</text>
</g>
<!-- if_poisoned_burned_or_paralyzed_2&#45;&gt;w_plus_5 -->
<g id="edge52" class="edge"><title>if_poisoned_burned_or_paralyzed_2&#45;&gt;w_plus_5</title>
<path fill="none" stroke="black" d="M663.95,-526.962C673.997,-508.035 685.138,-487.044 693.63,-471.044"/>
<polygon fill="black" stroke="black" points="696.945,-472.263 698.542,-461.789 690.762,-468.981 696.945,-472.263"/>
<text text-anchor="middle" x="695.784" y="-482.8" font-family="Times,serif" font-size="14.00">yes</text>
</g>
<!-- w_less_than_10 -->
<g id="node42" class="node"><title>w_less_than_10</title>
<polygon fill="none" stroke="black" points="707.453,-389 655.571,-371 707.453,-353 759.336,-371 707.453,-389"/>
<text text-anchor="middle" x="707.453" y="-366.8" font-family="Times,serif" font-size="14.00">W &lt; 10</text>
</g>
<!-- if_poisoned_burned_or_paralyzed_2&#45;&gt;w_less_than_10 -->
<g id="edge54" class="edge"><title>if_poisoned_burned_or_paralyzed_2&#45;&gt;w_less_than_10</title>
<path fill="none" stroke="black" d="M631.904,-515.802C631.226,-487.356 634.175,-453.547 647.453,-426 654.771,-410.819 668.452,-397.986 680.905,-388.643"/>
<polygon fill="black" stroke="black" points="683.095,-391.381 689.236,-382.747 679.051,-385.667 683.095,-391.381"/>
<text text-anchor="middle" x="654.453" y="-439.8" font-family="Times,serif" font-size="14.00">no</text>
</g>
<!-- w_plus_10&#45;&gt;if_poisoned_burned_or_paralyzed_2 -->
<g id="edge51" class="edge"><title>w_plus_10&#45;&gt;if_poisoned_burned_or_paralyzed_2</title>
<path fill="none" stroke="black" d="M638.453,-689.737C638.453,-679.299 638.453,-665.201 638.453,-650.513"/>
<polygon fill="black" stroke="black" points="641.954,-650.288 638.453,-640.288 634.954,-650.288 641.954,-650.288"/>
<text text-anchor="middle" x="645.453" y="-660.8" font-family="Times,serif" font-size="14.00">no</text>
</g>
<!-- w_plus_5&#45;&gt;w_less_than_10 -->
<g id="edge53" class="edge"><title>w_plus_5&#45;&gt;w_less_than_10</title>
<path fill="none" stroke="black" d="M707.453,-425.813C707.453,-417.789 707.453,-408.047 707.453,-399.069"/>
<polygon fill="black" stroke="black" points="710.954,-399.029 707.453,-389.029 703.954,-399.029 710.954,-399.029"/>
</g>
<!-- w_less_than_30 -->
<g id="node43" class="node"><title>w_less_than_30</title>
<polygon fill="none" stroke="black" points="707.453,-303 655.571,-285 707.453,-267 759.336,-285 707.453,-303"/>
<text text-anchor="middle" x="707.453" y="-280.8" font-family="Times,serif" font-size="14.00">W &lt; 30</text>
</g>
<!-- w_less_than_10&#45;&gt;w_less_than_30 -->
<g id="edge55" class="edge"><title>w_less_than_10&#45;&gt;w_less_than_30</title>
<path fill="none" stroke="black" d="M707.453,-352.595C707.453,-341.257 707.453,-326.227 707.453,-313.315"/>
<polygon fill="black" stroke="black" points="710.954,-313.095 707.453,-303.095 703.954,-313.095 710.954,-313.095"/>
<text text-anchor="middle" x="714.453" y="-323.8" font-family="Times,serif" font-size="14.00">no</text>
</g>
<!-- missed -->
<g id="node44" class="node"><title>missed</title>
<ellipse fill="none" stroke="black" cx="1066.45" cy="-18" rx="129.928" ry="18"/>
<text text-anchor="middle" x="1066.45" y="-13.8" font-family="Times,serif" font-size="14.00">&#39;The ball missed the POKéMON!&#39;</text>
</g>
<!-- w_less_than_10&#45;&gt;missed -->
<g id="edge56" class="edge"><title>w_less_than_10&#45;&gt;missed</title>
<path fill="none" stroke="black" d="M753.286,-368.82C850.068,-365.081 1066.45,-349.61 1066.45,-286 1066.45,-286 1066.45,-286 1066.45,-90 1066.45,-75.6513 1066.45,-59.6715 1066.45,-46.5107"/>
<polygon fill="black" stroke="black" points="1069.95,-46.2164 1066.45,-36.2164 1062.95,-46.2164 1069.95,-46.2164"/>
<text text-anchor="middle" x="1075.78" y="-194.8" font-family="Times,serif" font-size="14.00">yes</text>
</g>
<!-- w_less_than_70 -->
<g id="node45" class="node"><title>w_less_than_70</title>
<polygon fill="none" stroke="black" points="509.453,-217 457.571,-199 509.453,-181 561.336,-199 509.453,-217"/>
<text text-anchor="middle" x="509.453" y="-194.8" font-family="Times,serif" font-size="14.00">W &lt; 70</text>
</g>
<!-- w_less_than_30&#45;&gt;w_less_than_70 -->
<g id="edge57" class="edge"><title>w_less_than_30&#45;&gt;w_less_than_70</title>
<path fill="none" stroke="black" d="M685.125,-274.527C649.901,-259.584 581.311,-230.485 541.047,-213.403"/>
<polygon fill="black" stroke="black" points="542.273,-210.121 531.7,-209.438 539.539,-216.566 542.273,-210.121"/>
<text text-anchor="middle" x="626.453" y="-237.8" font-family="Times,serif" font-size="14.00">no</text>
</g>
<!-- wobble_1 -->
<g id="node46" class="node"><title>wobble_1</title>
<ellipse fill="none" stroke="black" cx="763.453" cy="-145" rx="65.3003" ry="18"/>
<text text-anchor="middle" x="763.453" y="-140.8" font-family="Times,serif" font-size="14.00">Wobble 1 times</text>
</g>
<!-- w_less_than_30&#45;&gt;wobble_1 -->
<g id="edge58" class="edge"><title>w_less_than_30&#45;&gt;wobble_1</title>
<path fill="none" stroke="black" d="M713.553,-268.969C722.935,-245.848 741.04,-201.233 752.669,-172.575"/>
<polygon fill="black" stroke="black" points="755.971,-173.747 756.488,-163.165 749.485,-171.115 755.971,-173.747"/>
<text text-anchor="middle" x="735.784" y="-237.8" font-family="Times,serif" font-size="14.00">yes</text>
</g>
<!-- w_less_than_70&#45;&gt;wobble_3 -->
<g id="edge60" class="edge"><title>w_less_than_70&#45;&gt;wobble_3</title>
<path fill="none" stroke="black" d="M493.224,-186.454C468.818,-169.092 422.231,-135.949 391.247,-113.907"/>
<polygon fill="black" stroke="black" points="393.13,-110.951 382.953,-108.006 389.073,-116.655 393.13,-110.951"/>
<text text-anchor="middle" x="463.453" y="-140.8" font-family="Times,serif" font-size="14.00">no</text>
</g>
<!-- wobble_2 -->
<g id="node47" class="node"><title>wobble_2</title>
<ellipse fill="none" stroke="black" cx="509.453" cy="-91" rx="65.3003" ry="18"/>
<text text-anchor="middle" x="509.453" y="-86.8" font-family="Times,serif" font-size="14.00">Wobble 2 times</text>
</g>
<!-- w_less_than_70&#45;&gt;wobble_2 -->
<g id="edge59" class="edge"><title>w_less_than_70&#45;&gt;wobble_2</title>
<path fill="none" stroke="black" d="M509.453,-180.969C509.453,-164.378 509.453,-138.883 509.453,-119.431"/>
<polygon fill="black" stroke="black" points="512.954,-119.341 509.453,-109.341 505.954,-119.341 512.954,-119.341"/>
<text text-anchor="middle" x="518.784" y="-140.8" font-family="Times,serif" font-size="14.00">yes</text>
</g>
<!-- broke_free -->
<g id="node48" class="node"><title>broke_free</title>
<ellipse fill="none" stroke="black" cx="783.453" cy="-18" rx="135.353" ry="18"/>
<text text-anchor="middle" x="783.453" y="-13.8" font-family="Times,serif" font-size="14.00">&#39;Darn! The POKéMON broke free!&#39;</text>
</g>
<!-- wobble_1&#45;&gt;broke_free -->
<g id="edge61" class="edge"><title>wobble_1&#45;&gt;broke_free</title>
<path fill="none" stroke="black" d="M766.192,-126.881C769.51,-106.146 775.141,-70.9525 779.066,-46.4215"/>
<polygon fill="black" stroke="black" points="782.559,-46.7404 780.683,-36.313 775.647,-45.6344 782.559,-46.7404"/>
</g>
<!-- appeared_to_be_caught -->
<g id="node49" class="node"><title>appeared_to_be_caught</title>
<ellipse fill="none" stroke="black" cx="505.453" cy="-18" rx="124.893" ry="18"/>
<text text-anchor="middle" x="505.453" y="-13.8" font-family="Times,serif" font-size="14.00">&#39;Aww! It appeared to be caught!&#39;</text>
</g>
<!-- wobble_2&#45;&gt;appeared_to_be_caught -->
<g id="edge62" class="edge"><title>wobble_2&#45;&gt;appeared_to_be_caught</title>
<path fill="none" stroke="black" d="M508.485,-72.8129C508.033,-64.7895 507.484,-55.0475 506.978,-46.0691"/>
<polygon fill="black" stroke="black" points="510.47,-45.8161 506.413,-36.0288 503.481,-46.2099 510.47,-45.8161"/>
</g>
</g>
</svg>
